<svg xmlns="http://www.w3.org/2000/svg" width="48" height="48" viewBox="0 0 12.7 12.7"><g transform="matrix(.26458 0 0 .26458 -335.718 -384.006)"><path fill="#e040fb" d="m 1316.854,1475.3622 a 24,24 0 0 0 -24,-24 24,24 0 0 0 -24,24 24,24 0 0 0 24,24 24,24 0 0 0 24,-24 z"/><g fill="#fff" transform="translate(945.387 130.212)"><path d="m 347.47461,310.03711 c -0.8278,0 -1.599,0.49752 -2.2168,1.32812 -1.21164,1.6275 -1.87053,4.09515 -1.83008,6.74805 a 0.50005,0.50005 0 0 0 0,0.0215 l 0.0566,0.98632 c -0.6207,0.054 -1.24076,0.12062 -1.85938,0.19922 l -0.31641,-1.42578 c -0.0979,-0.4406 -0.38926,-0.81578 -0.79297,-1.01758 l -1.81835,-0.9082 c 0.007,-0.06 0.0195,-0.11954 0.0195,-0.18164 0,-0.8225 -0.6775,-1.5 -1.5,-1.5 -0.82251,0 -1.5,0.6775 -1.5,1.5 0,0.8225 0.67749,1.5 1.5,1.5 0.40136,0 0.76668,-0.16303 1.03711,-0.42383 l 1.81445,0.9082 c 0.13499,0.067 0.23093,0.19255 0.26367,0.33985 l 0.30078,1.35547 c -0.29692,0.045 -0.59438,0.082 -0.89062,0.13281 l -2.60938,0.44531 a 0.50029963,0.50029963 0 0 0 0.16797,0.98633 l 2.60938,-0.44531 c 1.20449,-0.2057 2.41684,-0.35825 3.63086,-0.46485 l 0.12109,2.12696 a 0.50005,0.50005 0 0 0 0.002,0.0352 c 0.0179,0.1432 -0.0271,0.28273 -0.12304,0.39063 l -0.73438,0.83008 c -0.71039,0.7992 -1.0159,1.87864 -0.83008,2.93164 l 0.16992,0.95898 c 0.22152,1.2553 0.49581,2.50082 0.82422,3.73242 l 0.51368,1.92188 a 0.50005,0.50005 0 0 0 0.48242,0.36914 l 0.625,0 0,-2.12891 c 0,-1.3764 1.01055,-2.625 2.39258,-2.625 l 0.96679,0 c 1.38202,0 2.39063,1.2486 2.39063,2.625 l 0,2.12891 0.625,0 a 0.50005,0.50005 0 0 0 0.48242,-0.37109 l 0.45898,-1.71876 c 0.36485,-1.36788 0.66369,-2.75369 0.89649,-4.15039 l 0.15234,-0.90429 c 0.18574,-1.1145 -0.17963,-2.25188 -0.97851,-3.05078 l -0.5625,-0.5625 c -0.10939,-0.1094 -0.16177,-0.26252 -0.14258,-0.41602 a 0.50005,0.50005 0 0 0 0.004,-0.0332 l 0.11719,-2.08985 c 1.21397,0.1066 2.42446,0.25915 3.62891,0.46485 l 2.60937,0.44531 a 0.50029963,0.50029963 0 0 0 0.16797,-0.98633 l -2.60937,-0.44531 c -0.2961,-0.051 -0.59386,-0.088 -0.89063,-0.13281 l 0.30078,-1.35547 c 0.0327,-0.1473 0.12869,-0.27285 0.26367,-0.33985 l 1.81446,-0.9082 c 0.27043,0.2608 0.63574,0.42383 1.03711,0.42383 0.8225,0 1.5,-0.6775 1.5,-1.5 0,-0.8225 -0.6775,-1.5 -1.5,-1.5 -0.82251,0 -1.5,0.6775 -1.5,1.5 0,0.062 0.012,0.12134 0.0195,0.18164 l -1.81836,0.9082 c -0.40369,0.2018 -0.69506,0.57698 -0.79297,1.01758 l -0.31641,1.42578 c -0.61829,-0.079 -1.23706,-0.14522 -1.85742,-0.19922 l 0.0547,-0.98632 a 0.50005,0.50005 0 0 0 0,-0.0215 c 0.0407,-2.6497 -0.60008,-5.11755 -1.8125,-6.74805 -0.6178,-0.8306 -1.39095,-1.32812 -2.21875,-1.32812 z m 0,1 c 0.43038,0 0.91778,0.25413 1.41601,0.92383 1.01926,1.3709 1.65324,3.66242 1.61524,6.13672 l -0.0547,0.95507 c -0.99383,-0.065 -1.98886,-0.10742 -2.98437,-0.10742 -0.99552,0 -1.99055,0.043 -2.98438,0.10742 l -0.0547,-0.96289 c -0.0362,-2.4702 0.61312,-4.7592 1.63282,-6.1289 0.49823,-0.6697 0.98368,-0.92383 1.41406,-0.92383 z m -0.008,10.50195 a 1.5000001,1.5000001 0 0 1 1.5,1.5 1.5000001,1.5000001 0 0 1 -1.5,1.5 1.5000001,1.5000001 0 0 1 -1.5,-1.5 1.5000001,1.5000001 0 0 1 1.5,-1.5 z" color="#000" enable-background="accumulate" font-family="sans-serif" font-weight="400" transform="translate(0 1020.362)" style="line-height:normal;text-indent:0;text-align:start;text-decoration-line:none;text-decoration-style:solid;text-decoration-color:#000;text-transform:none;white-space:normal;isolation:auto;mix-blend-mode:normal;solid-color:#000;solid-opacity:1" overflow="visible"/><path d="m 346.98438,329.53906 c -0.45243,0 -0.85352,0.23139 -1.13086,0.5918 l 0.42578,0.42578 a 0.50005,0.50005 0 1 1 -0.70703,0.70703 l -0.0957,-0.0957 c -0.002,0.0407 -0.01,0.0796 -0.01,0.12109 l 0,0.9668 a 0.50005,0.50005 0 0 1 0.0723,0.0606 l 0.49024,0.49023 a 0.50005,0.50005 0 0 1 -0.5625,0.81055 l 0,0.88867 a 0.50005,0.50005 0 0 1 0.0723,0.0606 l 0.49024,0.49023 a 0.50005,0.50005 0 0 1 -0.5625,0.81055 l 0,0.88867 a 0.50005,0.50005 0 0 1 0.0723,0.0606 l 0.49024,0.49023 a 0.50005,0.50005 0 0 1 -0.53321,0.82422 c 0.1371,0.80461 0.74978,1.4082 1.48829,1.4082 l 0.96679,0 c 0.73851,0 1.34923,-0.60359 1.48633,-1.4082 a 0.50005,0.50005 0 0 1 -0.5332,-0.82422 l 0.49023,-0.49023 a 0.50005,0.50005 0 0 1 0.0723,-0.0625 l 0,-0.88672 a 0.50005,0.50005 0 0 1 -0.5625,-0.81055 l 0.49023,-0.49023 a 0.50005,0.50005 0 0 1 0.0723,-0.0625 l 0,-0.88672 a 0.50005,0.50005 0 0 1 -0.5625,-0.81055 l 0.49023,-0.49023 a 0.50005,0.50005 0 0 1 0.0723,-0.0625 l 0,-0.96485 c 0,-0.0415 -0.007,-0.0804 -0.01,-0.12109 l -0.0957,0.0957 a 0.50005,0.50005 0 1 1 -0.70703,-0.70703 l 0.42578,-0.42578 c -0.27735,-0.36041 -0.67649,-0.5918 -1.12891,-0.5918 z" transform="translate(0 1020.362)"/></g></g></svg>